<svg id="Layer_1" enable-background="new 0 0 90 90" height="512" viewBox="0 0 90 90" width="512" xmlns="http://www.w3.org/2000/svg"><g><path d="m39.595 58.907 5.699 2.375-8.234 7.031zm38.219-32.347-12.201 32.519c-.877 1.772-1.373 3.31-1.928 3.896-.277.302-.502.447-1.07.547-.559.093-1.516.057-2.916-.307l-17.738-7.41zm-7.064-4.604-44.542 27.253-15.518-6.761c-.553-.327-.836-.66-.939-.889-.11-.24-.115-.379-.011-.66.214-.562 1.296-1.72 3.878-2.407.014 0 .025-.005.041-.005l55.79-16.157zm12.936-7.624c-.025 0-.051 0-.078 0-.229.016-.453.068-.662.161l-14.557 4.215-55.755 16.143c-.005 0-.005.005-.009.005l-.032.005c-3.271.883-5.559 2.463-6.41 4.723-.424 1.139-.387 2.438.114 3.535.501 1.102 1.4 1.979 2.523 2.624.063.037.126.067.192.094l15.807 6.891 3.626 11.158c.302 1.019 1.39 1.596 2.407 1.268 1.014-.333 1.557-1.429 1.197-2.432l-3.428-10.56 47.369-28.985-38.866 31.698c-.011.009-.016.015-.026.025-.434.333-.695.842-.722 1.387l-4.572 16.953c-.48 1.793 1.652 3.124 3.066 1.923l.053-.042c.011-.009.021-.02.031-.031l14.249-12.172 9.227 3.852c.078.036.156.063.236.083 1.775.474 3.254.613 4.576.39s2.449-.877 3.213-1.693c1.531-1.632 1.922-3.528 2.586-4.854.027-.062.053-.12.074-.188l16.273-43.364c0-.005 0-.005 0-.011.258-.467.299-1.023.121-1.527-.063-.177-.152-.348-.266-.499-.021-.027-.043-.052-.064-.079-.016-.025-.035-.046-.057-.066-.021-.026-.047-.052-.072-.073-.021-.021-.043-.041-.059-.063-.025-.021-.053-.041-.084-.062-.343-.286-.776-.437-1.221-.432z"/></g></svg>