<?xml version="1.0"?>
<svg xmlns="http://www.w3.org/2000/svg" xmlns:xlink="http://www.w3.org/1999/xlink" xmlns:svgjs="http://svgjs.com/svgjs" version="1.1" width="512" height="512" x="0" y="0" viewBox="0 0 64 64" style="enable-background:new 0 0 512 512" xml:space="preserve" class=""><g><path id="XMLID_1070_" d="m55 27c0-12.683-10.318-23-23-23s-23 10.317-23 23h-4v20h4.338c1.404 6.282 7.112 11 13.928 11h1.756c.913 1.208 2.347 2 3.977 2h6c2.761 0 5-2.239 5-5s-2.239-5-5-5h-6c-2.419 0-4.436 1.718-4.899 4h-.834c-4.588 0-8.482-2.948-9.793-7h3.527v-20h-4c0-10.477 8.523-19 19-19s19 8.523 19 19h-4v20h12v-20zm-26 27h6c.551 0 1 .449 1 1s-.449 1-1 1h-6c-.551 0-1-.449-1-1s.449-1 1-1zm-20-23h4v12h-4zm46 12h-4v-12h4z" fill="#000" data-original="#000000"/></g></svg>
