<?xml version="1.0"?>
<svg xmlns="http://www.w3.org/2000/svg" xmlns:xlink="http://www.w3.org/1999/xlink" xmlns:svgjs="http://svgjs.com/svgjs" version="1.1" width="512px" height="512px" x="0" y="0" viewBox="0 0 512 512" style="enable-background:new 0 0 512 512" xml:space="preserve"><g transform="matrix(-1.8369701987210297e-16,1,-1,-1.8369701987210297e-16,512.0001296997071,0.00009918212890625)"><path d="m502.628 278.627-113.378 113.378c-6.249 6.249-14.438 9.373-22.628 9.373s-16.379-3.124-22.628-9.373c-12.496-12.497-12.496-32.758 0-45.255l58.751-58.75h-370.745c-17.673 0-32-14.327-32-32s14.327-32 32-32h370.745l-58.751-58.75c-12.496-12.497-12.496-32.758 0-45.255 12.498-12.497 32.758-12.497 45.256 0l113.378 113.378c12.496 12.496 12.496 32.758 0 45.254z" fill="#000000" data-original="#000000"/></g></svg>
